<?xml version="1.0" encoding="UTF-8"?>
<svg id="Layer_2" data-name="Layer 2" xmlns="http://www.w3.org/2000/svg" viewBox="0 0 42 42">
  <defs>
    <style>
      .cls-1 {
        fill: #4b5563;
      }
    </style>
  </defs>
  <g id="light_mode" data-name="light mode">
    <g id="Graphic_Elements" data-name="Graphic Elements">
      <path class="cls-1" d="M21.91,29.78h-3.1l11.62,12.22h-8.09L3.84,22.47h11.14l-4.85-5.1-1.94-2.05L0,6.67h8.46l2.2,2.34,1.61,1.72,10.42,10.92h1.47c2.45,0,4.74-1.43,5.78-3.77.55-1.24.86-2.62.86-4.03-.01-1.98-.79-3.77-2.01-5.08-1.25-1.29-2.95-2.09-4.83-2.09h-15.48L2.07,0h21.3c3.58.05,7.06,1.67,9.52,4.41.21.24.42.48.61.73.09.13.2.27.3.4.03.05.07.11.1.16,1.67,2.34,2.65,5.26,2.65,8.41,0,5.6-3.1,10.43-7.59,12.72-.29.18-.58.37-.87.52l13.89,14.65h-8.09l-11.99-12.22Z"/>
    </g>
  </g>
</svg>